<?xml version="1.0" encoding="utf-8"?>
<svg version="1.1" xmlns="http://www.w3.org/2000/svg" width="423px" height="423px" viewBox="0 0 423 423">
	<path d="M215.7,261.745c0,7.373-5.977,13.35-13.35,13.35S189,269.118,189,261.745s5.977-13.351,13.35-13.351
	S215.7,254.372,215.7,261.745z" />
	<path d="M393.2,261.745c0,7.373-5.978,13.35-13.351,13.35s-13.35-5.977-13.35-13.35s5.977-13.351,13.35-13.351
	S393.2,254.372,393.2,261.745z" />
	<path d="M52,129.595h21.377l72.188,116.5l-1.798-116.5H162v145.5h-19.508L68.675,152.24L70,275.095H52V129.595z" />
	<path d="M301.338,129.528h-23.675l-49.392,145.5h20.174l14.711-46h51.584l15.736,46h20.415L301.338,129.528z M267.156,214.028
	l22.178-67l21.494,67H267.156z" />
</svg>